<svg width="28" height="28" viewBox="0 0 28 28" fill="none" xmlns="http://www.w3.org/2000/svg">
<path fill-rule="evenodd" clip-rule="evenodd" d="M0.666992 4.66699C0.666992 2.45861 2.45861 0.666992 4.66699 0.666992H14.0003C14.7367 0.666992 15.3337 1.26395 15.3337 2.00033C15.3337 2.73671 14.7367 3.33366 14.0003 3.33366H4.66699C3.93137 3.33366 3.33366 3.93137 3.33366 4.66699V23.3337C3.33366 24.0693 3.93137 24.667 4.66699 24.667H14.0003C14.7367 24.667 15.3337 25.2639 15.3337 26.0003C15.3337 26.7367 14.7367 27.3337 14.0003 27.3337H4.66699C2.45861 27.3337 0.666992 25.542 0.666992 23.3337V4.66699Z" fill="#E8424A"/>
<path fill-rule="evenodd" clip-rule="evenodd" d="M19.724 7.72451C20.2447 7.20381 21.0889 7.20381 21.6096 7.72451L26.943 13.0578C27.4637 13.5785 27.4637 14.4228 26.943 14.9435L21.6096 20.2768C21.0889 20.7975 20.2447 20.7975 19.724 20.2768C19.2033 19.7561 19.2033 18.9119 19.724 18.3912L24.1145 14.0007L19.724 9.61013C19.2033 9.08943 19.2033 8.24521 19.724 7.72451Z" fill="#E8424A"/>
<path fill-rule="evenodd" clip-rule="evenodd" d="M8.66699 14.0003C8.66699 13.2639 9.26395 12.667 10.0003 12.667H26.0003C26.7367 12.667 27.3337 13.2639 27.3337 14.0003C27.3337 14.7367 26.7367 15.3337 26.0003 15.3337H10.0003C9.26395 15.3337 8.66699 14.7367 8.66699 14.0003Z" fill="#E8424A"/>
</svg>
